<svg viewBox="0 0 700 440" xmlns="http://www.w3.org/2000/svg"
     style="font-family:-apple-system,system-ui,sans-serif;background:white;">
  <text x="350" y="22" text-anchor="middle" font-size="13" font-weight="600" fill="#222">
    Top PFC-Enriched Genes by Cell Type (Early Development)
  </text>
  <text x="350" y="40" text-anchor="middle" font-size="10" fill="#666">
    log fold change (PFC vs. other areas) · p_adj &lt; 0.05 · MAST test · Kriegstein lab, cortical-arealization repo
  </text>
  <text x="350" y="56" text-anchor="middle" font-size="10" fill="#444">
    HOPX (oRG marker) and ANXA2 enriched in PFC radial glia; NEUROG1 and STK17A in early neurons
  </text>
  <text x="358" y="419" text-anchor="middle"
        font-size="10" fill="#555">Average log fold change (PFC enrichment)</text>
  <line x1="115" y1="67" x2="115" y2="385" stroke="#ccc" stroke-width="1"/><line x1="115.0" y1="67" x2="115.0" y2="385" stroke="#eee" stroke-width="1"/><text x="115.0" y="401" text-anchor="middle" font-size="9" fill="#888">0.0</text><line x1="226.0" y1="67" x2="226.0" y2="385" stroke="#eee" stroke-width="1"/><text x="226.0" y="401" text-anchor="middle" font-size="9" fill="#888">0.3</text><line x1="337.0" y1="67" x2="337.0" y2="385" stroke="#eee" stroke-width="1"/><text x="337.0" y="401" text-anchor="middle" font-size="9" fill="#888">0.6</text><line x1="447.9" y1="67" x2="447.9" y2="385" stroke="#eee" stroke-width="1"/><text x="447.9" y="401" text-anchor="middle" font-size="9" fill="#888">0.9</text><line x1="558.9" y1="67" x2="558.9" y2="385" stroke="#eee" stroke-width="1"/><text x="558.9" y="401" text-anchor="middle" font-size="9" fill="#888">1.2</text><text x="105" y="80" text-anchor="end" font-size="11" fill="#1a5c8a" font-weight="700">Radial Glia</text><line x1="115" y1="93" x2="548.0" y2="93" stroke="#1a5c8a" stroke-width="1.5" opacity="0.4"/><circle cx="548.0" cy="93" r="6" fill="#1a5c8a" opacity="0.85"/><text x="107" y="97" text-anchor="end" font-size="10" fill="#333">ANXA2</text><text x="557.0" y="97" font-size="9" fill="#1a5c8a" font-weight="600">1.17</text><line x1="115" y1="121" x2="455.6" y2="121" stroke="#1a5c8a" stroke-width="1.5" opacity="0.4"/><circle cx="455.6" cy="121" r="6" fill="#1a5c8a" opacity="0.85"/><text x="107" y="125" text-anchor="end" font-size="10" fill="#333">CLU</text><text x="464.6" y="125" font-size="9" fill="#1a5c8a" font-weight="600">0.92</text><line x1="115" y1="149" x2="450.9" y2="149" stroke="#1a5c8a" stroke-width="1.5" opacity="0.4"/><circle cx="450.9" cy="149" r="6" fill="#1a5c8a" opacity="0.85"/><text x="107" y="153" text-anchor="end" font-size="10" fill="#333">LAMP5</text><text x="459.9" y="153" font-size="9" fill="#1a5c8a" font-weight="600">0.91</text><line x1="115" y1="177" x2="435.9" y2="177" stroke="#1a5c8a" stroke-width="1.5" opacity="0.4"/><circle cx="435.9" cy="177" r="6" fill="#1a5c8a" opacity="0.85"/><text x="107" y="181" text-anchor="end" font-size="10" fill="#333">HSPA5</text><text x="444.9" y="181" font-size="9" fill="#1a5c8a" font-weight="600">0.87</text><line x1="115" y1="205" x2="430.9" y2="205" stroke="#1a5c8a" stroke-width="1.5" opacity="0.4"/><circle cx="430.9" cy="205" r="6" fill="#1a5c8a" opacity="0.85"/><text x="107" y="209" text-anchor="end" font-size="10" fill="#333">CD99</text><text x="439.9" y="209" font-size="9" fill="#1a5c8a" font-weight="600">0.85</text><line x1="115" y1="233" x2="412.0" y2="233" stroke="#1a5c8a" stroke-width="1.5" opacity="0.4"/><circle cx="412.0" cy="233" r="6" fill="#1a5c8a" opacity="0.85"/><text x="107" y="237" text-anchor="end" font-size="10" fill="#333">HOPX</text><text x="421.0" y="237" font-size="9" fill="#1a5c8a" font-weight="600">0.80</text><text x="105" y="280" text-anchor="end" font-size="11" fill="#27ae60" font-weight="700">IPC</text><line x1="115" y1="293" x2="423.0" y2="293" stroke="#27ae60" stroke-width="1.5" opacity="0.4"/><circle cx="423.0" cy="293" r="6" fill="#27ae60" opacity="0.85"/><text x="107" y="297" text-anchor="end" font-size="10" fill="#333">HIST1H4C</text><text x="432.0" y="297" font-size="9" fill="#27ae60" font-weight="600">0.83</text><line x1="115" y1="321" x2="323.5" y2="321" stroke="#27ae60" stroke-width="1.5" opacity="0.4"/><circle cx="323.5" cy="321" r="6" fill="#27ae60" opacity="0.85"/><text x="107" y="325" text-anchor="end" font-size="10" fill="#333">PLPPR3</text><text x="332.5" y="325" font-size="9" fill="#27ae60" font-weight="600">0.56</text><line x1="115" y1="349" x2="298.7" y2="349" stroke="#27ae60" stroke-width="1.5" opacity="0.4"/><circle cx="298.7" cy="349" r="6" fill="#27ae60" opacity="0.85"/><text x="107" y="353" text-anchor="end" font-size="10" fill="#333">C4orf48</text><text x="307.7" y="353" font-size="9" fill="#27ae60" font-weight="600">0.50</text><line x1="115" y1="377" x2="294.3" y2="377" stroke="#27ae60" stroke-width="1.5" opacity="0.4"/><circle cx="294.3" cy="377" r="6" fill="#27ae60" opacity="0.85"/><text x="107" y="381" text-anchor="end" font-size="10" fill="#333">CSRP2</text><text x="303.3" y="381" font-size="9" fill="#27ae60" font-weight="600">0.48</text><line x1="115" y1="405" x2="291.2" y2="405" stroke="#27ae60" stroke-width="1.5" opacity="0.4"/><circle cx="291.2" cy="405" r="6" fill="#27ae60" opacity="0.85"/><text x="107" y="409" text-anchor="end" font-size="10" fill="#333">RBP1</text><text x="300.2" y="409" font-size="9" fill="#27ae60" font-weight="600">0.48</text><line x1="115" y1="433" x2="285.2" y2="433" stroke="#27ae60" stroke-width="1.5" opacity="0.4"/><circle cx="285.2" cy="433" r="6" fill="#27ae60" opacity="0.85"/><text x="107" y="437" text-anchor="end" font-size="10" fill="#333">H2AFZ</text><text x="294.2" y="437" font-size="9" fill="#27ae60" font-weight="600">0.46</text><text x="105" y="480" text-anchor="end" font-size="11" fill="#c0392b" font-weight="700">Neuron</text><line x1="115" y1="493" x2="537.8" y2="493" stroke="#c0392b" stroke-width="1.5" opacity="0.4"/><circle cx="537.8" cy="493" r="6" fill="#c0392b" opacity="0.85"/><text x="107" y="497" text-anchor="end" font-size="10" fill="#333">KIAA0101</text><text x="546.8" y="497" font-size="9" fill="#c0392b" font-weight="600">1.14</text><line x1="115" y1="521" x2="523.0" y2="521" stroke="#c0392b" stroke-width="1.5" opacity="0.4"/><circle cx="523.0" cy="521" r="6" fill="#c0392b" opacity="0.85"/><text x="107" y="525" text-anchor="end" font-size="10" fill="#333">STK17A</text><text x="532.0" y="525" font-size="9" fill="#c0392b" font-weight="600">1.10</text><line x1="115" y1="549" x2="511.5" y2="549" stroke="#c0392b" stroke-width="1.5" opacity="0.4"/><circle cx="511.5" cy="549" r="6" fill="#c0392b" opacity="0.85"/><text x="107" y="553" text-anchor="end" font-size="10" fill="#333">DUT</text><text x="520.5" y="553" font-size="9" fill="#c0392b" font-weight="600">1.07</text><line x1="115" y1="577" x2="509.2" y2="577" stroke="#c0392b" stroke-width="1.5" opacity="0.4"/><circle cx="509.2" cy="577" r="6" fill="#c0392b" opacity="0.85"/><text x="107" y="581" text-anchor="end" font-size="10" fill="#333">NEUROG1</text><text x="518.2" y="581" font-size="9" fill="#c0392b" font-weight="600">1.07</text><line x1="115" y1="605" x2="491.0" y2="605" stroke="#c0392b" stroke-width="1.5" opacity="0.4"/><circle cx="491.0" cy="605" r="6" fill="#c0392b" opacity="0.85"/><text x="107" y="609" text-anchor="end" font-size="10" fill="#333">HMGB2</text><text x="500.0" y="609" font-size="9" fill="#c0392b" font-weight="600">1.02</text><line x1="115" y1="633" x2="484.1" y2="633" stroke="#c0392b" stroke-width="1.5" opacity="0.4"/><circle cx="484.1" cy="633" r="6" fill="#c0392b" opacity="0.85"/><text x="107" y="637" text-anchor="end" font-size="10" fill="#333">MDK</text><text x="493.1" y="637" font-size="9" fill="#c0392b" font-weight="600">1.00</text><line x1="115" y1="661" x2="464.8" y2="661" stroke="#c0392b" stroke-width="1.5" opacity="0.4"/><circle cx="464.8" cy="661" r="6" fill="#c0392b" opacity="0.85"/><text x="107" y="665" text-anchor="end" font-size="10" fill="#333">H2AFZ</text><text x="473.8" y="665" font-size="9" fill="#c0392b" font-weight="600">0.95</text><line x1="115" y1="689" x2="463.1" y2="689" stroke="#c0392b" stroke-width="1.5" opacity="0.4"/><circle cx="463.1" cy="689" r="6" fill="#c0392b" opacity="0.85"/><text x="107" y="693" text-anchor="end" font-size="10" fill="#333">PPP1R17</text><text x="472.1" y="693" font-size="9" fill="#c0392b" font-weight="600">0.94</text><circle cx="618" cy="95" r="5" fill="#1a5c8a"/><text x="628" y="99" font-size="10" fill="#1a5c8a" font-weight="600">Radial Glia</text><circle cx="618" cy="117" r="5" fill="#27ae60"/><text x="628" y="121" font-size="10" fill="#27ae60" font-weight="600">IPC</text><circle cx="618" cy="139" r="5" fill="#c0392b"/><text x="628" y="143" font-size="10" fill="#c0392b" font-weight="600">Neuron</text>
</svg>