<svg viewBox="0 0 680 380" xmlns="http://www.w3.org/2000/svg"
     style="font-family:-apple-system,system-ui,sans-serif;background:white;">
  <text x="340" y="22" text-anchor="middle" font-size="13" font-weight="600" fill="#222">
    PFC Enrichment of Radial Glia Markers Across Developmental Stages
  </text>
  <text x="340" y="40" text-anchor="middle" font-size="10" fill="#666">
    Radial glia (RG) cell type · MAST log fold change (PFC vs. other cortical areas)
  </text>
  <text x="340" y="56" text-anchor="middle" font-size="10" fill="#444">
    HOPX enrichment increases mid-stage; CLU peaks early then declines — two distinct arealization dynamics
  </text>
  <line x1="60" y1="75" x2="60" y2="310" stroke="#ccc" stroke-width="1"/><line x1="60" y1="310" x2="650" y2="310" stroke="#ccc" stroke-width="1"/><line x1="60" y1="310.0" x2="650" y2="310.0" stroke="#eee" stroke-width="1"/><text x="52" y="314.0" text-anchor="end" font-size="9" fill="#888">0.0</text><line x1="60" y1="253.6" x2="650" y2="253.6" stroke="#eee" stroke-width="1"/><text x="52" y="257.6" text-anchor="end" font-size="9" fill="#888">0.3</text><line x1="60" y1="197.2" x2="650" y2="197.2" stroke="#eee" stroke-width="1"/><text x="52" y="201.2" text-anchor="end" font-size="9" fill="#888">0.6</text><line x1="60" y1="140.8" x2="650" y2="140.8" stroke="#eee" stroke-width="1"/><text x="52" y="144.8" text-anchor="end" font-size="9" fill="#888">0.9</text><line x1="60" y1="84.4" x2="650" y2="84.4" stroke="#eee" stroke-width="1"/><text x="52" y="88.4" text-anchor="end" font-size="9" fill="#888">1.2</text><text transform="rotate(-90,18,192)" x="18" y="192" text-anchor="middle" font-size="10" fill="#555">Avg log fold change (PFC enrichment)</text><text x="133.8" y="330" text-anchor="middle" font-size="11" fill="#c0392b" font-weight="700">ANXA2</text><rect x="74.8" y="89.9" width="32.5" height="220.1" fill="#d35400" opacity="0.8" rx="2"/><text x="91.0" y="84.9" text-anchor="middle" font-size="8.5" fill="#d35400" font-weight="600">1.17</text><rect x="114.6" y="177.5" width="32.5" height="132.5" fill="#8e44ad" opacity="0.8" rx="2"/><text x="130.8" y="172.5" text-anchor="middle" font-size="8.5" fill="#8e44ad" font-weight="600">0.70</text><rect x="154.4" y="290.0" width="32.5" height="20" fill="none" stroke="#2980b9" stroke-dasharray="3,2" opacity="0.4" rx="2"/><text x="281.2" y="330" text-anchor="middle" font-size="11" fill="#1a5c8a" font-weight="700">HOPX</text><rect x="222.2" y="159.1" width="32.5" height="150.9" fill="#d35400" opacity="0.8" rx="2"/><text x="238.5" y="154.1" text-anchor="middle" font-size="8.5" fill="#d35400" font-weight="600">0.80</text><rect x="262.1" y="141.4" width="32.5" height="168.6" fill="#8e44ad" opacity="0.8" rx="2"/><text x="278.3" y="136.4" text-anchor="middle" font-size="8.5" fill="#8e44ad" font-weight="600">0.90</text><rect x="301.9" y="290.0" width="32.5" height="20" fill="none" stroke="#2980b9" stroke-dasharray="3,2" opacity="0.4" rx="2"/><text x="428.8" y="330" text-anchor="middle" font-size="11" fill="#27ae60" font-weight="700">CLU</text><rect x="369.8" y="136.9" width="32.5" height="173.1" fill="#d35400" opacity="0.8" rx="2"/><text x="386.0" y="131.9" text-anchor="middle" font-size="8.5" fill="#d35400" font-weight="600">0.92</text><rect x="409.6" y="215.0" width="32.5" height="95.0" fill="#8e44ad" opacity="0.8" rx="2"/><text x="425.8" y="210.0" text-anchor="middle" font-size="8.5" fill="#8e44ad" font-weight="600">0.51</text><rect x="449.4" y="242.7" width="32.5" height="67.3" fill="#2980b9" opacity="0.8" rx="2"/><text x="465.6" y="237.7" text-anchor="middle" font-size="8.5" fill="#2980b9" font-weight="600">0.36</text><text x="576.2" y="330" text-anchor="middle" font-size="11" fill="#e67e22" font-weight="700">LAMP5</text><rect x="517.2" y="139.3" width="32.5" height="170.7" fill="#d35400" opacity="0.8" rx="2"/><text x="533.5" y="134.3" text-anchor="middle" font-size="8.5" fill="#d35400" font-weight="600">0.91</text><rect x="557.1" y="160.0" width="32.5" height="150.0" fill="#8e44ad" opacity="0.8" rx="2"/><text x="573.3" y="155.0" text-anchor="middle" font-size="8.5" fill="#8e44ad" font-weight="600">0.80</text><rect x="596.9" y="290.0" width="32.5" height="20" fill="none" stroke="#2980b9" stroke-dasharray="3,2" opacity="0.4" rx="2"/><rect x="414.0" y="83" width="12" height="12" fill="#d35400" rx="2" opacity="0.8"/><text x="430.0" y="93" font-size="10" fill="#d35400" font-weight="600">Early</text><rect x="486.0" y="83" width="12" height="12" fill="#8e44ad" rx="2" opacity="0.8"/><text x="502.0" y="93" font-size="10" fill="#8e44ad" font-weight="600">Mid</text><rect x="558.0" y="83" width="12" height="12" fill="#2980b9" rx="2" opacity="0.8"/><text x="574.0" y="93" font-size="10" fill="#2980b9" font-weight="600">Late</text>
</svg>